# xmcd
#
# Track frame offsets: 
#        150
#        13984
#        26553
#        45691
#        58391
#        73564
#        85329
#        102362
#        115188
#        129683
#        144819
#        163459
#        184386
#        197363
#        209586
#        225670
#        238140
#        250774
#        268475
#        289345
#        304561
#
# Disc length: 4219 seconds
#
# Revision: 0
# Processed by: cddbd v1.5.2PL0 Copyright (c) Steve Scherf et al.
# Submitted via: ExactAudioCopyFreeDBPlugin 1.0
#
DISCID=45107915
DTITLE=Various Artist - The Very Best Country and Bluegrass CD 1
DYEAR=2013
DGENRE=Country
TTITLE0=The Broken Circle Breakdown Bluegrass Band  - If I Needed You 
TTITLE0=(2012)
TTITLE1=The Staple Singers  - Will The Circle Be Unbroken  (1999)
TTITLE2=The Soggy Bottom Boys  - I Am A Man Of Constant Sorrow  (2000)
TTITLE3=Waylon Jennings  - Love Of The Common People  (2013)
TTITLE4=Bill Monroe and His Bluegrass Boys  - In The Pines  (1952)
TTITLE5=Dolly Parton  - Jolene  (1973)
TTITLE6=C.W. McCall  - Convoy  (1975)
TTITLE7=Bobbie Gentry  - I'll Never Fall In Love Again  (1969)
TTITLE8=Glen Campbell  - Rhinestone Cowboy  (1975)
TTITLE9=Juice Newton  - Queen Of Hearts  (1981)
TTITLE10=Kris Kristofferson  - Me And Bobby McGee  (1970)
TTITLE11=Marty Robbins  - El Paso  (1959)
TTITLE12=Tanya Tucker  - Delta Dawn  (1972)
TTITLE13=Patsy Cline Featuring The Jordanaires  - Crazy  (1961)
TTITLE14=The Charlie Daniels Band  - The Devil Went Down To Georgia  (
TTITLE14=1979)
TTITLE15=Hank Williams  - I'm So Lonesome I Could Cry  (1949)
TTITLE16=Charlie McCoy  - Orange Blossem Special  (1998)
TTITLE17=John Hiatt  - Memphis In The Meantime  (1987)
TTITLE18=Lynyrd Skynyrd  - Sweet Home Alabama  (1974)
TTITLE19=The Secret Sisters  - The One I Love Is Gone  (2010)
TTITLE20=Tammy Wynette  - Stand By Your Man  (1968)
EXTD=
EXTT0=
EXTT1=
EXTT2=
EXTT3=
EXTT4=
EXTT5=
EXTT6=
EXTT7=
EXTT8=
EXTT9=
EXTT10=
EXTT11=
EXTT12=
EXTT13=
EXTT14=
EXTT15=
EXTT16=
EXTT17=
EXTT18=
EXTT19=
EXTT20=
PLAYORDER=
